<mxfile host="app.diagrams.net" modified="2020-09-22T15:12:36.856Z" agent="5.0 (Windows NT 10.0; Win64; x64) AppleWebKit/537.36 (KHTML, like Gecko) Chrome/85.0.4183.121 Safari/537.36" etag="PNBmQ8vuPJSdArjmLcNa" version="13.7.4" type="github">
  <diagram id="LBwsWg3DHm3VI3vRRIfu" name="Page-1">
    <mxGraphModel dx="1185" dy="662" grid="1" gridSize="10" guides="1" tooltips="1" connect="1" arrows="1" fold="1" page="1" pageScale="1" pageWidth="827" pageHeight="1169" background="none" math="0" shadow="1">
      <root>
        <mxCell id="0" />
        <mxCell id="1" parent="0" />
        <mxCell id="sRFEvAHlBmAmTLRkeG5V-6" style="edgeStyle=orthogonalEdgeStyle;rounded=0;orthogonalLoop=1;jettySize=auto;html=1;exitX=0.5;exitY=1;exitDx=0;exitDy=0;entryX=0.5;entryY=0;entryDx=0;entryDy=0;" edge="1" parent="1" source="sRFEvAHlBmAmTLRkeG5V-1" target="sRFEvAHlBmAmTLRkeG5V-3">
          <mxGeometry relative="1" as="geometry" />
        </mxCell>
        <mxCell id="sRFEvAHlBmAmTLRkeG5V-1" value="&lt;font style=&quot;font-size: 23px&quot;&gt;Início&lt;/font&gt;" style="ellipse;whiteSpace=wrap;html=1;" vertex="1" parent="1">
          <mxGeometry x="85" y="30" width="95" height="50" as="geometry" />
        </mxCell>
        <mxCell id="sRFEvAHlBmAmTLRkeG5V-12" style="edgeStyle=orthogonalEdgeStyle;rounded=0;orthogonalLoop=1;jettySize=auto;html=1;exitX=0.5;exitY=1;exitDx=0;exitDy=0;entryX=0.5;entryY=0;entryDx=0;entryDy=0;" edge="1" parent="1" source="sRFEvAHlBmAmTLRkeG5V-2" target="sRFEvAHlBmAmTLRkeG5V-11">
          <mxGeometry relative="1" as="geometry" />
        </mxCell>
        <mxCell id="sRFEvAHlBmAmTLRkeG5V-2" value="R[1] &amp;lt;= ch" style="rounded=1;whiteSpace=wrap;html=1;" vertex="1" parent="1">
          <mxGeometry x="85" y="240" width="95" height="40" as="geometry" />
        </mxCell>
        <mxCell id="sRFEvAHlBmAmTLRkeG5V-7" style="edgeStyle=orthogonalEdgeStyle;rounded=0;orthogonalLoop=1;jettySize=auto;html=1;exitX=1;exitY=0.5;exitDx=0;exitDy=0;" edge="1" parent="1" source="sRFEvAHlBmAmTLRkeG5V-3">
          <mxGeometry relative="1" as="geometry">
            <mxPoint x="133" y="90" as="targetPoint" />
          </mxGeometry>
        </mxCell>
        <mxCell id="sRFEvAHlBmAmTLRkeG5V-8" style="edgeStyle=orthogonalEdgeStyle;rounded=0;orthogonalLoop=1;jettySize=auto;html=1;exitX=0.5;exitY=1;exitDx=0;exitDy=0;entryX=0.5;entryY=0;entryDx=0;entryDy=0;" edge="1" parent="1" source="sRFEvAHlBmAmTLRkeG5V-3" target="sRFEvAHlBmAmTLRkeG5V-2">
          <mxGeometry relative="1" as="geometry" />
        </mxCell>
        <mxCell id="sRFEvAHlBmAmTLRkeG5V-3" value="RUN" style="rhombus;whiteSpace=wrap;html=1;" vertex="1" parent="1">
          <mxGeometry x="85" y="110" width="95" height="80" as="geometry" />
        </mxCell>
        <mxCell id="sRFEvAHlBmAmTLRkeG5V-9" value="NÃO" style="text;html=1;strokeColor=none;fillColor=none;align=center;verticalAlign=middle;whiteSpace=wrap;rounded=0;" vertex="1" parent="1">
          <mxGeometry x="200" y="110" width="40" height="20" as="geometry" />
        </mxCell>
        <mxCell id="sRFEvAHlBmAmTLRkeG5V-10" value="SIM" style="text;html=1;strokeColor=none;fillColor=none;align=center;verticalAlign=middle;whiteSpace=wrap;rounded=0;" vertex="1" parent="1">
          <mxGeometry x="130" y="210" width="40" height="20" as="geometry" />
        </mxCell>
        <mxCell id="sRFEvAHlBmAmTLRkeG5V-15" style="edgeStyle=orthogonalEdgeStyle;rounded=0;orthogonalLoop=1;jettySize=auto;html=1;exitX=0.5;exitY=1;exitDx=0;exitDy=0;entryX=0.5;entryY=0;entryDx=0;entryDy=0;" edge="1" parent="1" source="sRFEvAHlBmAmTLRkeG5V-11" target="sRFEvAHlBmAmTLRkeG5V-14">
          <mxGeometry relative="1" as="geometry" />
        </mxCell>
        <mxCell id="sRFEvAHlBmAmTLRkeG5V-11" value="LED &amp;lt;= R[1]" style="rounded=1;whiteSpace=wrap;html=1;" vertex="1" parent="1">
          <mxGeometry x="85" y="320" width="95" height="40" as="geometry" />
        </mxCell>
        <mxCell id="sRFEvAHlBmAmTLRkeG5V-16" style="edgeStyle=orthogonalEdgeStyle;rounded=0;orthogonalLoop=1;jettySize=auto;html=1;exitX=1;exitY=0.5;exitDx=0;exitDy=0;" edge="1" parent="1" source="sRFEvAHlBmAmTLRkeG5V-14">
          <mxGeometry relative="1" as="geometry">
            <mxPoint x="133" y="380" as="targetPoint" />
          </mxGeometry>
        </mxCell>
        <mxCell id="sRFEvAHlBmAmTLRkeG5V-18" style="edgeStyle=orthogonalEdgeStyle;rounded=0;orthogonalLoop=1;jettySize=auto;html=1;exitX=0.5;exitY=1;exitDx=0;exitDy=0;entryX=0.5;entryY=0;entryDx=0;entryDy=0;" edge="1" parent="1" source="sRFEvAHlBmAmTLRkeG5V-14" target="sRFEvAHlBmAmTLRkeG5V-17">
          <mxGeometry relative="1" as="geometry" />
        </mxCell>
        <mxCell id="sRFEvAHlBmAmTLRkeG5V-14" value="RUN" style="rhombus;whiteSpace=wrap;html=1;" vertex="1" parent="1">
          <mxGeometry x="85" y="400" width="95" height="80" as="geometry" />
        </mxCell>
        <mxCell id="sRFEvAHlBmAmTLRkeG5V-17" value="1" style="shape=offPageConnector;whiteSpace=wrap;html=1;" vertex="1" parent="1">
          <mxGeometry x="113.75" y="520" width="37.5" height="40" as="geometry" />
        </mxCell>
        <mxCell id="sRFEvAHlBmAmTLRkeG5V-19" value="SIM" style="text;html=1;strokeColor=none;fillColor=none;align=center;verticalAlign=middle;whiteSpace=wrap;rounded=0;" vertex="1" parent="1">
          <mxGeometry x="130" y="490" width="40" height="20" as="geometry" />
        </mxCell>
        <mxCell id="sRFEvAHlBmAmTLRkeG5V-20" value="NÃO" style="text;html=1;strokeColor=none;fillColor=none;align=center;verticalAlign=middle;whiteSpace=wrap;rounded=0;" vertex="1" parent="1">
          <mxGeometry x="200" y="400" width="40" height="20" as="geometry" />
        </mxCell>
        <mxCell id="sRFEvAHlBmAmTLRkeG5V-21" style="edgeStyle=orthogonalEdgeStyle;rounded=0;orthogonalLoop=1;jettySize=auto;html=1;exitX=0.5;exitY=1;exitDx=0;exitDy=0;entryX=0.5;entryY=0;entryDx=0;entryDy=0;" edge="1" parent="1" source="sRFEvAHlBmAmTLRkeG5V-22" target="sRFEvAHlBmAmTLRkeG5V-24">
          <mxGeometry relative="1" as="geometry" />
        </mxCell>
        <mxCell id="sRFEvAHlBmAmTLRkeG5V-22" value="R[2] &amp;lt;= ch" style="rounded=1;whiteSpace=wrap;html=1;" vertex="1" parent="1">
          <mxGeometry x="280" y="80" width="95" height="40" as="geometry" />
        </mxCell>
        <mxCell id="sRFEvAHlBmAmTLRkeG5V-23" style="edgeStyle=orthogonalEdgeStyle;rounded=0;orthogonalLoop=1;jettySize=auto;html=1;exitX=0.5;exitY=1;exitDx=0;exitDy=0;entryX=0.5;entryY=0;entryDx=0;entryDy=0;" edge="1" parent="1" source="sRFEvAHlBmAmTLRkeG5V-24" target="sRFEvAHlBmAmTLRkeG5V-27">
          <mxGeometry relative="1" as="geometry" />
        </mxCell>
        <mxCell id="sRFEvAHlBmAmTLRkeG5V-24" value="LED &amp;lt;= R[2]" style="rounded=1;whiteSpace=wrap;html=1;" vertex="1" parent="1">
          <mxGeometry x="280" y="160" width="95" height="40" as="geometry" />
        </mxCell>
        <mxCell id="sRFEvAHlBmAmTLRkeG5V-25" style="edgeStyle=orthogonalEdgeStyle;rounded=0;orthogonalLoop=1;jettySize=auto;html=1;exitX=1;exitY=0.5;exitDx=0;exitDy=0;" edge="1" parent="1" source="sRFEvAHlBmAmTLRkeG5V-27">
          <mxGeometry relative="1" as="geometry">
            <mxPoint x="328" y="220" as="targetPoint" />
          </mxGeometry>
        </mxCell>
        <mxCell id="sRFEvAHlBmAmTLRkeG5V-26" style="edgeStyle=orthogonalEdgeStyle;rounded=0;orthogonalLoop=1;jettySize=auto;html=1;exitX=0.5;exitY=1;exitDx=0;exitDy=0;entryX=0.5;entryY=0;entryDx=0;entryDy=0;" edge="1" parent="1" source="sRFEvAHlBmAmTLRkeG5V-27" target="sRFEvAHlBmAmTLRkeG5V-28">
          <mxGeometry relative="1" as="geometry" />
        </mxCell>
        <mxCell id="sRFEvAHlBmAmTLRkeG5V-27" value="RUN" style="rhombus;whiteSpace=wrap;html=1;" vertex="1" parent="1">
          <mxGeometry x="280" y="240" width="95" height="80" as="geometry" />
        </mxCell>
        <mxCell id="sRFEvAHlBmAmTLRkeG5V-28" value="2" style="shape=offPageConnector;whiteSpace=wrap;html=1;" vertex="1" parent="1">
          <mxGeometry x="308.75" y="360" width="37.5" height="40" as="geometry" />
        </mxCell>
        <mxCell id="sRFEvAHlBmAmTLRkeG5V-29" value="SIM" style="text;html=1;strokeColor=none;fillColor=none;align=center;verticalAlign=middle;whiteSpace=wrap;rounded=0;" vertex="1" parent="1">
          <mxGeometry x="325" y="330" width="40" height="20" as="geometry" />
        </mxCell>
        <mxCell id="sRFEvAHlBmAmTLRkeG5V-30" value="NÃO" style="text;html=1;strokeColor=none;fillColor=none;align=center;verticalAlign=middle;whiteSpace=wrap;rounded=0;" vertex="1" parent="1">
          <mxGeometry x="395" y="240" width="40" height="20" as="geometry" />
        </mxCell>
        <mxCell id="sRFEvAHlBmAmTLRkeG5V-31" style="edgeStyle=orthogonalEdgeStyle;rounded=0;orthogonalLoop=1;jettySize=auto;html=1;exitX=0.5;exitY=1;exitDx=0;exitDy=0;entryX=0.5;entryY=0;entryDx=0;entryDy=0;" edge="1" parent="1" source="sRFEvAHlBmAmTLRkeG5V-32" target="sRFEvAHlBmAmTLRkeG5V-34">
          <mxGeometry relative="1" as="geometry" />
        </mxCell>
        <mxCell id="sRFEvAHlBmAmTLRkeG5V-32" value="R[3] &amp;lt;= ch" style="rounded=1;whiteSpace=wrap;html=1;" vertex="1" parent="1">
          <mxGeometry x="460" y="80" width="95" height="40" as="geometry" />
        </mxCell>
        <mxCell id="sRFEvAHlBmAmTLRkeG5V-33" style="edgeStyle=orthogonalEdgeStyle;rounded=0;orthogonalLoop=1;jettySize=auto;html=1;exitX=0.5;exitY=1;exitDx=0;exitDy=0;entryX=0.5;entryY=0;entryDx=0;entryDy=0;" edge="1" parent="1" source="sRFEvAHlBmAmTLRkeG5V-34" target="sRFEvAHlBmAmTLRkeG5V-37">
          <mxGeometry relative="1" as="geometry" />
        </mxCell>
        <mxCell id="sRFEvAHlBmAmTLRkeG5V-34" value="LED &amp;lt;= R[3]" style="rounded=1;whiteSpace=wrap;html=1;" vertex="1" parent="1">
          <mxGeometry x="460" y="160" width="95" height="40" as="geometry" />
        </mxCell>
        <mxCell id="sRFEvAHlBmAmTLRkeG5V-35" style="edgeStyle=orthogonalEdgeStyle;rounded=0;orthogonalLoop=1;jettySize=auto;html=1;exitX=1;exitY=0.5;exitDx=0;exitDy=0;" edge="1" parent="1" source="sRFEvAHlBmAmTLRkeG5V-37">
          <mxGeometry relative="1" as="geometry">
            <mxPoint x="508" y="220" as="targetPoint" />
          </mxGeometry>
        </mxCell>
        <mxCell id="sRFEvAHlBmAmTLRkeG5V-36" style="edgeStyle=orthogonalEdgeStyle;rounded=0;orthogonalLoop=1;jettySize=auto;html=1;exitX=0.5;exitY=1;exitDx=0;exitDy=0;entryX=0.5;entryY=0;entryDx=0;entryDy=0;" edge="1" parent="1" source="sRFEvAHlBmAmTLRkeG5V-37" target="sRFEvAHlBmAmTLRkeG5V-38">
          <mxGeometry relative="1" as="geometry" />
        </mxCell>
        <mxCell id="sRFEvAHlBmAmTLRkeG5V-37" value="RUN" style="rhombus;whiteSpace=wrap;html=1;" vertex="1" parent="1">
          <mxGeometry x="460" y="240" width="95" height="80" as="geometry" />
        </mxCell>
        <mxCell id="sRFEvAHlBmAmTLRkeG5V-38" value="3" style="shape=offPageConnector;whiteSpace=wrap;html=1;" vertex="1" parent="1">
          <mxGeometry x="488.75" y="360" width="37.5" height="40" as="geometry" />
        </mxCell>
        <mxCell id="sRFEvAHlBmAmTLRkeG5V-39" value="SIM" style="text;html=1;strokeColor=none;fillColor=none;align=center;verticalAlign=middle;whiteSpace=wrap;rounded=0;" vertex="1" parent="1">
          <mxGeometry x="505" y="330" width="40" height="20" as="geometry" />
        </mxCell>
        <mxCell id="sRFEvAHlBmAmTLRkeG5V-40" value="NÃO" style="text;html=1;strokeColor=none;fillColor=none;align=center;verticalAlign=middle;whiteSpace=wrap;rounded=0;" vertex="1" parent="1">
          <mxGeometry x="575" y="240" width="40" height="20" as="geometry" />
        </mxCell>
        <mxCell id="sRFEvAHlBmAmTLRkeG5V-41" style="edgeStyle=orthogonalEdgeStyle;rounded=0;orthogonalLoop=1;jettySize=auto;html=1;exitX=0.5;exitY=1;exitDx=0;exitDy=0;entryX=0.5;entryY=0;entryDx=0;entryDy=0;" edge="1" parent="1" source="sRFEvAHlBmAmTLRkeG5V-42" target="sRFEvAHlBmAmTLRkeG5V-44">
          <mxGeometry relative="1" as="geometry" />
        </mxCell>
        <mxCell id="sRFEvAHlBmAmTLRkeG5V-42" value="R[4] &amp;lt;= ch" style="rounded=1;whiteSpace=wrap;html=1;" vertex="1" parent="1">
          <mxGeometry x="640" y="80" width="95" height="40" as="geometry" />
        </mxCell>
        <mxCell id="sRFEvAHlBmAmTLRkeG5V-43" style="edgeStyle=orthogonalEdgeStyle;rounded=0;orthogonalLoop=1;jettySize=auto;html=1;exitX=0.5;exitY=1;exitDx=0;exitDy=0;entryX=0.5;entryY=0;entryDx=0;entryDy=0;" edge="1" parent="1" source="sRFEvAHlBmAmTLRkeG5V-44" target="sRFEvAHlBmAmTLRkeG5V-47">
          <mxGeometry relative="1" as="geometry" />
        </mxCell>
        <mxCell id="sRFEvAHlBmAmTLRkeG5V-44" value="LED &amp;lt;= R[4]" style="rounded=1;whiteSpace=wrap;html=1;" vertex="1" parent="1">
          <mxGeometry x="640" y="160" width="95" height="40" as="geometry" />
        </mxCell>
        <mxCell id="sRFEvAHlBmAmTLRkeG5V-45" style="edgeStyle=orthogonalEdgeStyle;rounded=0;orthogonalLoop=1;jettySize=auto;html=1;exitX=1;exitY=0.5;exitDx=0;exitDy=0;" edge="1" parent="1" source="sRFEvAHlBmAmTLRkeG5V-47">
          <mxGeometry relative="1" as="geometry">
            <mxPoint x="688" y="220" as="targetPoint" />
          </mxGeometry>
        </mxCell>
        <mxCell id="sRFEvAHlBmAmTLRkeG5V-46" style="edgeStyle=orthogonalEdgeStyle;rounded=0;orthogonalLoop=1;jettySize=auto;html=1;exitX=0.5;exitY=1;exitDx=0;exitDy=0;entryX=0.5;entryY=0;entryDx=0;entryDy=0;" edge="1" parent="1" source="sRFEvAHlBmAmTLRkeG5V-47" target="sRFEvAHlBmAmTLRkeG5V-48">
          <mxGeometry relative="1" as="geometry" />
        </mxCell>
        <mxCell id="sRFEvAHlBmAmTLRkeG5V-47" value="RUN" style="rhombus;whiteSpace=wrap;html=1;" vertex="1" parent="1">
          <mxGeometry x="640" y="240" width="95" height="80" as="geometry" />
        </mxCell>
        <mxCell id="sRFEvAHlBmAmTLRkeG5V-48" value="4" style="shape=offPageConnector;whiteSpace=wrap;html=1;" vertex="1" parent="1">
          <mxGeometry x="668.75" y="360" width="37.5" height="40" as="geometry" />
        </mxCell>
        <mxCell id="sRFEvAHlBmAmTLRkeG5V-49" value="SIM" style="text;html=1;strokeColor=none;fillColor=none;align=center;verticalAlign=middle;whiteSpace=wrap;rounded=0;" vertex="1" parent="1">
          <mxGeometry x="685" y="330" width="40" height="20" as="geometry" />
        </mxCell>
        <mxCell id="sRFEvAHlBmAmTLRkeG5V-50" value="NÃO" style="text;html=1;strokeColor=none;fillColor=none;align=center;verticalAlign=middle;whiteSpace=wrap;rounded=0;" vertex="1" parent="1">
          <mxGeometry x="755" y="240" width="40" height="20" as="geometry" />
        </mxCell>
        <mxCell id="sRFEvAHlBmAmTLRkeG5V-63" style="edgeStyle=orthogonalEdgeStyle;rounded=0;orthogonalLoop=1;jettySize=auto;html=1;exitX=0.5;exitY=1;exitDx=0;exitDy=0;entryX=0.5;entryY=0;entryDx=0;entryDy=0;" edge="1" parent="1" source="sRFEvAHlBmAmTLRkeG5V-62" target="sRFEvAHlBmAmTLRkeG5V-22">
          <mxGeometry relative="1" as="geometry" />
        </mxCell>
        <mxCell id="sRFEvAHlBmAmTLRkeG5V-62" value="1" style="shape=offPageConnector;whiteSpace=wrap;html=1;" vertex="1" parent="1">
          <mxGeometry x="308.75" y="10" width="37.5" height="40" as="geometry" />
        </mxCell>
        <mxCell id="sRFEvAHlBmAmTLRkeG5V-103" style="edgeStyle=orthogonalEdgeStyle;rounded=0;orthogonalLoop=1;jettySize=auto;html=1;exitX=0.5;exitY=1;exitDx=0;exitDy=0;entryX=0.5;entryY=0;entryDx=0;entryDy=0;" edge="1" parent="1" source="sRFEvAHlBmAmTLRkeG5V-64" target="sRFEvAHlBmAmTLRkeG5V-32">
          <mxGeometry relative="1" as="geometry" />
        </mxCell>
        <mxCell id="sRFEvAHlBmAmTLRkeG5V-64" value="2" style="shape=offPageConnector;whiteSpace=wrap;html=1;" vertex="1" parent="1">
          <mxGeometry x="488.75" y="10" width="37.5" height="40" as="geometry" />
        </mxCell>
        <mxCell id="sRFEvAHlBmAmTLRkeG5V-104" style="edgeStyle=orthogonalEdgeStyle;rounded=0;orthogonalLoop=1;jettySize=auto;html=1;exitX=0.5;exitY=1;exitDx=0;exitDy=0;entryX=0.5;entryY=0;entryDx=0;entryDy=0;" edge="1" parent="1" source="sRFEvAHlBmAmTLRkeG5V-65" target="sRFEvAHlBmAmTLRkeG5V-42">
          <mxGeometry relative="1" as="geometry" />
        </mxCell>
        <mxCell id="sRFEvAHlBmAmTLRkeG5V-65" value="3" style="shape=offPageConnector;whiteSpace=wrap;html=1;" vertex="1" parent="1">
          <mxGeometry x="668.75" y="10" width="37.5" height="40" as="geometry" />
        </mxCell>
        <mxCell id="sRFEvAHlBmAmTLRkeG5V-66" style="edgeStyle=orthogonalEdgeStyle;rounded=0;orthogonalLoop=1;jettySize=auto;html=1;exitX=0.5;exitY=1;exitDx=0;exitDy=0;entryX=0.5;entryY=0;entryDx=0;entryDy=0;" edge="1" parent="1" source="sRFEvAHlBmAmTLRkeG5V-67" target="sRFEvAHlBmAmTLRkeG5V-69">
          <mxGeometry relative="1" as="geometry" />
        </mxCell>
        <mxCell id="sRFEvAHlBmAmTLRkeG5V-67" value="R[5] &amp;lt;= ch" style="rounded=1;whiteSpace=wrap;html=1;" vertex="1" parent="1">
          <mxGeometry x="280" y="510" width="95" height="40" as="geometry" />
        </mxCell>
        <mxCell id="sRFEvAHlBmAmTLRkeG5V-68" style="edgeStyle=orthogonalEdgeStyle;rounded=0;orthogonalLoop=1;jettySize=auto;html=1;exitX=0.5;exitY=1;exitDx=0;exitDy=0;entryX=0.5;entryY=0;entryDx=0;entryDy=0;" edge="1" parent="1" source="sRFEvAHlBmAmTLRkeG5V-69" target="sRFEvAHlBmAmTLRkeG5V-72">
          <mxGeometry relative="1" as="geometry" />
        </mxCell>
        <mxCell id="sRFEvAHlBmAmTLRkeG5V-69" value="LED &amp;lt;= R[5]" style="rounded=1;whiteSpace=wrap;html=1;" vertex="1" parent="1">
          <mxGeometry x="280" y="590" width="95" height="40" as="geometry" />
        </mxCell>
        <mxCell id="sRFEvAHlBmAmTLRkeG5V-70" style="edgeStyle=orthogonalEdgeStyle;rounded=0;orthogonalLoop=1;jettySize=auto;html=1;exitX=1;exitY=0.5;exitDx=0;exitDy=0;" edge="1" parent="1" source="sRFEvAHlBmAmTLRkeG5V-72">
          <mxGeometry relative="1" as="geometry">
            <mxPoint x="328" y="650" as="targetPoint" />
          </mxGeometry>
        </mxCell>
        <mxCell id="sRFEvAHlBmAmTLRkeG5V-71" style="edgeStyle=orthogonalEdgeStyle;rounded=0;orthogonalLoop=1;jettySize=auto;html=1;exitX=0.5;exitY=1;exitDx=0;exitDy=0;entryX=0.5;entryY=0;entryDx=0;entryDy=0;" edge="1" parent="1" source="sRFEvAHlBmAmTLRkeG5V-72" target="sRFEvAHlBmAmTLRkeG5V-73">
          <mxGeometry relative="1" as="geometry" />
        </mxCell>
        <mxCell id="sRFEvAHlBmAmTLRkeG5V-72" value="RUN" style="rhombus;whiteSpace=wrap;html=1;" vertex="1" parent="1">
          <mxGeometry x="280" y="670" width="95" height="80" as="geometry" />
        </mxCell>
        <mxCell id="sRFEvAHlBmAmTLRkeG5V-73" value="5" style="shape=offPageConnector;whiteSpace=wrap;html=1;" vertex="1" parent="1">
          <mxGeometry x="308.75" y="790" width="37.5" height="40" as="geometry" />
        </mxCell>
        <mxCell id="sRFEvAHlBmAmTLRkeG5V-74" value="SIM" style="text;html=1;strokeColor=none;fillColor=none;align=center;verticalAlign=middle;whiteSpace=wrap;rounded=0;" vertex="1" parent="1">
          <mxGeometry x="325" y="760" width="40" height="20" as="geometry" />
        </mxCell>
        <mxCell id="sRFEvAHlBmAmTLRkeG5V-75" value="NÃO" style="text;html=1;strokeColor=none;fillColor=none;align=center;verticalAlign=middle;whiteSpace=wrap;rounded=0;" vertex="1" parent="1">
          <mxGeometry x="395" y="670" width="40" height="20" as="geometry" />
        </mxCell>
        <mxCell id="sRFEvAHlBmAmTLRkeG5V-76" style="edgeStyle=orthogonalEdgeStyle;rounded=0;orthogonalLoop=1;jettySize=auto;html=1;exitX=0.5;exitY=1;exitDx=0;exitDy=0;entryX=0.5;entryY=0;entryDx=0;entryDy=0;" edge="1" parent="1" source="sRFEvAHlBmAmTLRkeG5V-77" target="sRFEvAHlBmAmTLRkeG5V-79">
          <mxGeometry relative="1" as="geometry" />
        </mxCell>
        <mxCell id="sRFEvAHlBmAmTLRkeG5V-77" value="R[6] &amp;lt;= ch" style="rounded=1;whiteSpace=wrap;html=1;" vertex="1" parent="1">
          <mxGeometry x="460" y="510" width="95" height="40" as="geometry" />
        </mxCell>
        <mxCell id="sRFEvAHlBmAmTLRkeG5V-78" style="edgeStyle=orthogonalEdgeStyle;rounded=0;orthogonalLoop=1;jettySize=auto;html=1;exitX=0.5;exitY=1;exitDx=0;exitDy=0;entryX=0.5;entryY=0;entryDx=0;entryDy=0;" edge="1" parent="1" source="sRFEvAHlBmAmTLRkeG5V-79" target="sRFEvAHlBmAmTLRkeG5V-82">
          <mxGeometry relative="1" as="geometry" />
        </mxCell>
        <mxCell id="sRFEvAHlBmAmTLRkeG5V-79" value="LED &amp;lt;= R[6]" style="rounded=1;whiteSpace=wrap;html=1;" vertex="1" parent="1">
          <mxGeometry x="460" y="590" width="95" height="40" as="geometry" />
        </mxCell>
        <mxCell id="sRFEvAHlBmAmTLRkeG5V-80" style="edgeStyle=orthogonalEdgeStyle;rounded=0;orthogonalLoop=1;jettySize=auto;html=1;exitX=1;exitY=0.5;exitDx=0;exitDy=0;" edge="1" parent="1" source="sRFEvAHlBmAmTLRkeG5V-82">
          <mxGeometry relative="1" as="geometry">
            <mxPoint x="507.9999999999998" y="650" as="targetPoint" />
          </mxGeometry>
        </mxCell>
        <mxCell id="sRFEvAHlBmAmTLRkeG5V-81" style="edgeStyle=orthogonalEdgeStyle;rounded=0;orthogonalLoop=1;jettySize=auto;html=1;exitX=0.5;exitY=1;exitDx=0;exitDy=0;entryX=0.5;entryY=0;entryDx=0;entryDy=0;" edge="1" parent="1" source="sRFEvAHlBmAmTLRkeG5V-82" target="sRFEvAHlBmAmTLRkeG5V-83">
          <mxGeometry relative="1" as="geometry" />
        </mxCell>
        <mxCell id="sRFEvAHlBmAmTLRkeG5V-82" value="RUN" style="rhombus;whiteSpace=wrap;html=1;" vertex="1" parent="1">
          <mxGeometry x="460" y="670" width="95" height="80" as="geometry" />
        </mxCell>
        <mxCell id="sRFEvAHlBmAmTLRkeG5V-83" value="6" style="shape=offPageConnector;whiteSpace=wrap;html=1;" vertex="1" parent="1">
          <mxGeometry x="488.75" y="790" width="37.5" height="40" as="geometry" />
        </mxCell>
        <mxCell id="sRFEvAHlBmAmTLRkeG5V-84" value="SIM" style="text;html=1;strokeColor=none;fillColor=none;align=center;verticalAlign=middle;whiteSpace=wrap;rounded=0;" vertex="1" parent="1">
          <mxGeometry x="505" y="760" width="40" height="20" as="geometry" />
        </mxCell>
        <mxCell id="sRFEvAHlBmAmTLRkeG5V-85" value="NÃO" style="text;html=1;strokeColor=none;fillColor=none;align=center;verticalAlign=middle;whiteSpace=wrap;rounded=0;" vertex="1" parent="1">
          <mxGeometry x="575" y="670" width="40" height="20" as="geometry" />
        </mxCell>
        <mxCell id="sRFEvAHlBmAmTLRkeG5V-86" style="edgeStyle=orthogonalEdgeStyle;rounded=0;orthogonalLoop=1;jettySize=auto;html=1;exitX=0.5;exitY=1;exitDx=0;exitDy=0;entryX=0.5;entryY=0;entryDx=0;entryDy=0;" edge="1" parent="1" source="sRFEvAHlBmAmTLRkeG5V-87" target="sRFEvAHlBmAmTLRkeG5V-89">
          <mxGeometry relative="1" as="geometry" />
        </mxCell>
        <mxCell id="sRFEvAHlBmAmTLRkeG5V-87" value="R[7] &amp;lt;= ch" style="rounded=1;whiteSpace=wrap;html=1;" vertex="1" parent="1">
          <mxGeometry x="640" y="510" width="95" height="40" as="geometry" />
        </mxCell>
        <mxCell id="sRFEvAHlBmAmTLRkeG5V-88" style="edgeStyle=orthogonalEdgeStyle;rounded=0;orthogonalLoop=1;jettySize=auto;html=1;exitX=0.5;exitY=1;exitDx=0;exitDy=0;entryX=0.5;entryY=0;entryDx=0;entryDy=0;" edge="1" parent="1" source="sRFEvAHlBmAmTLRkeG5V-89" target="sRFEvAHlBmAmTLRkeG5V-92">
          <mxGeometry relative="1" as="geometry" />
        </mxCell>
        <mxCell id="sRFEvAHlBmAmTLRkeG5V-89" value="LED &amp;lt;= R[7]" style="rounded=1;whiteSpace=wrap;html=1;" vertex="1" parent="1">
          <mxGeometry x="640" y="590" width="95" height="40" as="geometry" />
        </mxCell>
        <mxCell id="sRFEvAHlBmAmTLRkeG5V-90" style="edgeStyle=orthogonalEdgeStyle;rounded=0;orthogonalLoop=1;jettySize=auto;html=1;exitX=1;exitY=0.5;exitDx=0;exitDy=0;" edge="1" parent="1" source="sRFEvAHlBmAmTLRkeG5V-92">
          <mxGeometry relative="1" as="geometry">
            <mxPoint x="687.9999999999998" y="650" as="targetPoint" />
          </mxGeometry>
        </mxCell>
        <mxCell id="sRFEvAHlBmAmTLRkeG5V-91" style="edgeStyle=orthogonalEdgeStyle;rounded=0;orthogonalLoop=1;jettySize=auto;html=1;exitX=0.5;exitY=1;exitDx=0;exitDy=0;entryX=0.5;entryY=0;entryDx=0;entryDy=0;" edge="1" parent="1" source="sRFEvAHlBmAmTLRkeG5V-92" target="sRFEvAHlBmAmTLRkeG5V-93">
          <mxGeometry relative="1" as="geometry" />
        </mxCell>
        <mxCell id="sRFEvAHlBmAmTLRkeG5V-92" value="RUN" style="rhombus;whiteSpace=wrap;html=1;" vertex="1" parent="1">
          <mxGeometry x="640" y="670" width="95" height="80" as="geometry" />
        </mxCell>
        <mxCell id="sRFEvAHlBmAmTLRkeG5V-93" value="7" style="shape=offPageConnector;whiteSpace=wrap;html=1;" vertex="1" parent="1">
          <mxGeometry x="668.75" y="790" width="37.5" height="40" as="geometry" />
        </mxCell>
        <mxCell id="sRFEvAHlBmAmTLRkeG5V-94" value="SIM" style="text;html=1;strokeColor=none;fillColor=none;align=center;verticalAlign=middle;whiteSpace=wrap;rounded=0;" vertex="1" parent="1">
          <mxGeometry x="685" y="760" width="40" height="20" as="geometry" />
        </mxCell>
        <mxCell id="sRFEvAHlBmAmTLRkeG5V-95" value="NÃO" style="text;html=1;strokeColor=none;fillColor=none;align=center;verticalAlign=middle;whiteSpace=wrap;rounded=0;" vertex="1" parent="1">
          <mxGeometry x="755" y="670" width="40" height="20" as="geometry" />
        </mxCell>
        <mxCell id="sRFEvAHlBmAmTLRkeG5V-96" style="edgeStyle=orthogonalEdgeStyle;rounded=0;orthogonalLoop=1;jettySize=auto;html=1;exitX=0.5;exitY=1;exitDx=0;exitDy=0;entryX=0.5;entryY=0;entryDx=0;entryDy=0;" edge="1" parent="1" source="sRFEvAHlBmAmTLRkeG5V-97" target="sRFEvAHlBmAmTLRkeG5V-67">
          <mxGeometry relative="1" as="geometry" />
        </mxCell>
        <mxCell id="sRFEvAHlBmAmTLRkeG5V-97" value="4" style="shape=offPageConnector;whiteSpace=wrap;html=1;" vertex="1" parent="1">
          <mxGeometry x="308.75" y="440" width="37.5" height="40" as="geometry" />
        </mxCell>
        <mxCell id="sRFEvAHlBmAmTLRkeG5V-100" style="edgeStyle=orthogonalEdgeStyle;rounded=0;orthogonalLoop=1;jettySize=auto;html=1;exitX=0.5;exitY=1;exitDx=0;exitDy=0;entryX=0.5;entryY=0;entryDx=0;entryDy=0;" edge="1" parent="1" source="sRFEvAHlBmAmTLRkeG5V-98" target="sRFEvAHlBmAmTLRkeG5V-77">
          <mxGeometry relative="1" as="geometry" />
        </mxCell>
        <mxCell id="sRFEvAHlBmAmTLRkeG5V-98" value="5" style="shape=offPageConnector;whiteSpace=wrap;html=1;" vertex="1" parent="1">
          <mxGeometry x="488.75" y="440" width="37.5" height="40" as="geometry" />
        </mxCell>
        <mxCell id="sRFEvAHlBmAmTLRkeG5V-101" style="edgeStyle=orthogonalEdgeStyle;rounded=0;orthogonalLoop=1;jettySize=auto;html=1;exitX=0.5;exitY=1;exitDx=0;exitDy=0;entryX=0.5;entryY=0;entryDx=0;entryDy=0;" edge="1" parent="1" source="sRFEvAHlBmAmTLRkeG5V-99" target="sRFEvAHlBmAmTLRkeG5V-87">
          <mxGeometry relative="1" as="geometry" />
        </mxCell>
        <mxCell id="sRFEvAHlBmAmTLRkeG5V-99" value="6" style="shape=offPageConnector;whiteSpace=wrap;html=1;" vertex="1" parent="1">
          <mxGeometry x="668.75" y="440" width="37.5" height="40" as="geometry" />
        </mxCell>
        <mxCell id="sRFEvAHlBmAmTLRkeG5V-107" value="" style="endArrow=none;html=1;" edge="1" parent="1">
          <mxGeometry width="50" height="50" relative="1" as="geometry">
            <mxPoint x="240" y="420" as="sourcePoint" />
            <mxPoint x="820" y="420" as="targetPoint" />
          </mxGeometry>
        </mxCell>
        <mxCell id="sRFEvAHlBmAmTLRkeG5V-108" value="" style="endArrow=none;html=1;" edge="1" parent="1">
          <mxGeometry width="50" height="50" relative="1" as="geometry">
            <mxPoint x="620" y="400" as="sourcePoint" />
            <mxPoint x="620" as="targetPoint" />
          </mxGeometry>
        </mxCell>
        <mxCell id="sRFEvAHlBmAmTLRkeG5V-109" value="" style="endArrow=none;html=1;" edge="1" parent="1">
          <mxGeometry width="50" height="50" relative="1" as="geometry">
            <mxPoint x="439.99999999999994" y="400" as="sourcePoint" />
            <mxPoint x="439.99999999999994" as="targetPoint" />
          </mxGeometry>
        </mxCell>
        <mxCell id="sRFEvAHlBmAmTLRkeG5V-110" value="" style="endArrow=none;html=1;" edge="1" parent="1">
          <mxGeometry width="50" height="50" relative="1" as="geometry">
            <mxPoint x="440" y="840" as="sourcePoint" />
            <mxPoint x="440" y="440" as="targetPoint" />
          </mxGeometry>
        </mxCell>
        <mxCell id="sRFEvAHlBmAmTLRkeG5V-111" value="" style="endArrow=none;html=1;" edge="1" parent="1">
          <mxGeometry width="50" height="50" relative="1" as="geometry">
            <mxPoint x="620" y="840" as="sourcePoint" />
            <mxPoint x="620" y="440" as="targetPoint" />
          </mxGeometry>
        </mxCell>
      </root>
    </mxGraphModel>
  </diagram>
</mxfile>
